. 
 
http://www.torrenting.com          :     Once & For all ;)


               www . Torrenting . Com 

(((((((((((((= Enjoy No RAR releases =))))))))))))))))))))


...................................NFO:....................................

.[center][img]http://lookpic.com/O/i2/483/wD3J4FQ7.jpeg[/img][/center]
[img]http://lookpic.com/O/i2/298/l4OrvnSi.png[/img]
http://www.imdb.com/title/tt1571222/
[b]Source: ILLUMINATI Thx

Work done:
Really just resized and tweaked some levels 
left the cam audio untouched 
Sample included check it

A Dangerous Method 2011 CaM XviD-INFERNO

Format                           : AVI
Format/Info                      : Audio Video Interleave
File size                        : 685 MiB
Duration                         : 1h 33mn
Overall bit rate                 : 1 025 Kbps
Writing library                  : VirtualDub build 30091/release

Video
ID                               : 0
Format                           : MPEG-4 Visual
Format profile                   : Advanced Simple@L5
Format settings, BVOP            : 2
Format settings, QPel            : No
Format settings, GMC             : No warppoints
Format settings, Matrix          : Default (H.263)
Muxing mode                      : Packed bitstream
Codec ID                         : XVID
Codec ID/Hint                    : XviD
Duration                         : 1h 33mn
Bit rate                         : 893 Kbps
Width                            : 608 pixels
Height                           : 320 pixels
Display aspect ratio             : 1.900
Frame rate                       : 25.000 fps
Color space                      : YUV
Chroma subsampling               : 4:2:0
Bit depth                        : 8 bits
Scan type                        : Progressive
Compression mode                 : Lossy
Bits/(Pixel*Frame)               : 0.184
Stream size                      : 596 MiB (87%)
Writing library                  : XviD 64

Audio
ID                               : 1
Format                           : MPEG Audio
Format version                   : Version 1
Format profile                   : Layer 3
Mode                             : Joint stereo
Mode extension                   : MS Stereo
Codec ID                         : 55
Codec ID/Hint                    : MP3
Duration                         : 1h 33mn
Bit rate mode                    : Variable
Bit rate                         : 120 Kbps
Channel(s)                       : 2 channels
Sampling rate                    : 48.0 KHz
Compression mode                 : Lossy
Stream size                      : 80.0 MiB (12%)
Alignment                        : Aligned on interleaves
Interleave, duration             : 24 ms (0.60 video frame)
Interleave, preload duration     : 509 ms[/b]

[IMG]http://lookpic.com/O/i2/1964/WcslQxoJ.png[/IMG]
[center][img]http://lookpic.com/O/i2/1370/dWqFXmEO.png[/img][/center]
[center][img]http://lookpic.com/O/i2/580/XM6TzZb0.png[/img][/center]
[center][img]http://lookpic.com/O/i2/863/MhRxnXnH.png[/img][/center]
[center][img]http://lookpic.com/O/i2/928/jcVF9it1.png[/img][/center]
[center][img]http://lookpic.com/O/i2/1533/jLompwDq.png[/img][/center]
[center][img]http://lookpic.com/O/i2/842/dhtDAMih.png[/img][/center]
[center][img]http://lookpic.com/O/i2/208/CkHNoay.png[/img][/center]